<?xml version="1.0" encoding="UTF-8" standalone="no"?>
<!-- Created with Inkscape (http://www.inkscape.org/) -->

<svg
   xmlns:dc="http://purl.org/dc/elements/1.1/"
   xmlns:cc="http://creativecommons.org/ns#"
   xmlns:rdf="http://www.w3.org/1999/02/22-rdf-syntax-ns#"
   xmlns:svg="http://www.w3.org/2000/svg"
   xmlns="http://www.w3.org/2000/svg"
   xmlns:sodipodi="http://sodipodi.sourceforge.net/DTD/sodipodi-0.dtd"
   xmlns:inkscape="http://www.inkscape.org/namespaces/inkscape"
   width="512"
   height="512"
   viewBox="0 0 511.99998 511.99998"
   id="svg2"
   version="1.1"
   inkscape:version="0.91 r13725"
   sodipodi:docname="lizard-inverted.svg">
  <defs
     id="defs4" />
  <sodipodi:namedview
     id="base"
     pagecolor="#ffffff"
     bordercolor="#666666"
     borderopacity="1.0"
     inkscape:pageopacity="0.0"
     inkscape:pageshadow="2"
     inkscape:zoom="0.9899495"
     inkscape:cx="410.18537"
     inkscape:cy="309.32614"
     inkscape:document-units="px"
     inkscape:current-layer="layer1"
     showgrid="false"
     units="px"
     showguides="true"
     inkscape:window-width="1916"
     inkscape:window-height="1161"
     inkscape:window-x="1920"
     inkscape:window-y="37"
     inkscape:window-maximized="0" />
  <metadata
     id="metadata7">
    <rdf:RDF>
      <cc:Work
         rdf:about="">
        <dc:format>image/svg+xml</dc:format>
        <dc:type
           rdf:resource="http://purl.org/dc/dcmitype/StillImage" />
        <dc:title></dc:title>
      </cc:Work>
    </rdf:RDF>
  </metadata>
  <g
     inkscape:label="Layer 1"
     inkscape:groupmode="layer"
     id="layer1"
     transform="translate(0,-540.36231)">
    <path
       style="opacity:1;fill:#000000;fill-opacity:1;stroke:none;stroke-width:10;stroke-miterlimit:4;stroke-dasharray:none;stroke-opacity:1"
       d="M 256,0 C 114.61511,1.6568539e-5 1.6568539e-5,114.61511 0,256 1.6568539e-5,397.38489 114.61511,511.99998 256,512 397.38489,511.99998 511.99998,397.38489 512,256 511.99998,114.61511 397.38489,1.6568539e-5 256,0 Z m 0,13.132812 C 390.13237,13.132833 498.86717,121.86763 498.86719,256 498.86717,390.13237 390.13237,498.86719 256,498.86719 121.86763,498.86719 13.132829,390.13237 13.132812,256 13.144891,190.58245 39.54505,127.93545 86.359375,82.242188 38.686125,153.93656 31.225072,276.24626 84.777344,348.89648 152.07015,440.18745 281.99296,456.14257 338.34961,385.93164 l -12.14649,-34.79102 -48.62109,7.11524 -43.87109,-13.13477 c -39.92572,-9.97973 -69.56641,-46.13327 -69.56641,-89.11914 0,-21.04239 7.10658,-40.44466 19.04102,-55.94531 l 27.14062,-40.68945 82.18858,-16.49486 20.38369,-24.75124 c -16.8327,-15.55349 -57.70313,-15.47461 -57.70313,-15.47461 3e-5,0 6.13389,14.07004 -11.09179,19.34375 -32.55147,9.96578 -102.73867,20.1511 -135.26563,10.66407 0,0 -7.89841,-47.87024 61.06445,-95.789066 C 198.16811,18.987842 223.86658,13.211213 256,13.132812 Z m -43.76172,62.521485 c -2.05678,-0.07884 -4.21836,0.170065 -6.35351,0.734375 -8.81271,2.32923 -15.18173,9.361127 -14.22657,15.705078 0.95551,6.344331 8.87603,9.59822 17.68946,7.269531 8.8127,-2.32923 15.18171,-9.359164 14.22656,-15.703125 -0.69488,-4.6157 -5.1596,-7.768579 -11.33594,-8.005859 z m 145.70899,85.287113 -29.71094,18.07812 -18.00391,2.88086 c 22.79843,16.72675 37.62305,43.7046 37.62305,74.10156 0,12.73359 -2.60226,24.86809 -7.30078,35.90039 l 14.11133,-8.52539 22.57031,31.03516 c 13.13139,-70.00915 5.15124,-109.95182 -19.28906,-153.4707 z m -62.48633,23.32226 -18.04688,2.88672 -43.36914,35.23828 2.71094,-24.39453 -35.23828,24.39453 10.8418,-34.56055 -6.73243,3.6504 c -19.15989,14.96954 -31.47461,38.27893 -31.47461,64.52343 0,36.90836 24.32819,68.04271 57.84961,78.2793 l 6.83399,-10.0332 -26.91992,-26.37891 39.58203,11.75 -5.25586,-33.01758 43.36914,46.07813 34.04492,-20.56836 c 8.95352,-13.12463 14.19141,-28.99409 14.19141,-46.10938 0,-30.94369 -17.10549,-57.82294 -42.38672,-71.73828 z"
       transform="translate(0,540.36231)"
       id="path5430"
       inkscape:connector-curvature="0"
       sodipodi:nodetypes="ssssscssccsccccscccccsccccscccccccscccccccccccscccccccsc" />
  </g>
</svg>
