<?xml version="1.0" encoding="UTF-8" standalone="no"?>
<!-- Created with Inkscape (http://www.inkscape.org/) -->

<svg
   xmlns:dc="http://purl.org/dc/elements/1.1/"
   xmlns:cc="http://creativecommons.org/ns#"
   xmlns:rdf="http://www.w3.org/1999/02/22-rdf-syntax-ns#"
   xmlns:svg="http://www.w3.org/2000/svg"
   xmlns="http://www.w3.org/2000/svg"
   xmlns:sodipodi="http://sodipodi.sourceforge.net/DTD/sodipodi-0.dtd"
   xmlns:inkscape="http://www.inkscape.org/namespaces/inkscape"
   width="512"
   height="512"
   viewBox="0 0 511.99998 511.99998"
   id="svg2"
   version="1.1"
   inkscape:version="0.91 r13725"
   sodipodi:docname="lizard.svg">
  <defs
     id="defs4" />
  <sodipodi:namedview
     id="base"
     pagecolor="#ffffff"
     bordercolor="#666666"
     borderopacity="1.0"
     inkscape:pageopacity="0.0"
     inkscape:pageshadow="2"
     inkscape:zoom="0.7"
     inkscape:cx="264.48613"
     inkscape:cy="423.07178"
     inkscape:document-units="px"
     inkscape:current-layer="layer1"
     showgrid="false"
     units="px"
     showguides="true"
     inkscape:window-width="956"
     inkscape:window-height="1161"
     inkscape:window-x="2880"
     inkscape:window-y="37"
     inkscape:window-maximized="0" />
  <metadata
     id="metadata7">
    <rdf:RDF>
      <cc:Work
         rdf:about="">
        <dc:format>image/svg+xml</dc:format>
        <dc:type
           rdf:resource="http://purl.org/dc/dcmitype/StillImage" />
        <dc:title />
      </cc:Work>
    </rdf:RDF>
  </metadata>
  <g
     inkscape:label="Layer 1"
     inkscape:groupmode="layer"
     id="layer1"
     transform="translate(0,-540.36231)">
    <path
       style="opacity:1;fill:#000000;fill-opacity:1;stroke:none"
       d="M 256,0 C 222.12911,0.082617 195.0402,6.171595 165.24609,25.015625 92.554385,75.525428 100.88086,125.98438 100.88086,125.98438 c 34.28571,10 108.26854,-0.73562 142.58008,-11.24024 18.15708,-5.55887 11.69145,-20.390238 11.69142,-20.390238 0,0 43.08014,-0.0819 60.82299,16.312578 l -24.54678,24.19094 -83.57115,19.28516 -32.56211,48.81681 L 210,184.14258 l -11.42773,36.42969 37.14257,-25.71485 -2.85742,25.71485 45.71485,-37.14454 53.57031,-8.57031 31.31631,-19.05581 c 25.7618,45.87197 34.17354,87.97413 20.33213,161.7687 L 360,284.85742 l -68.57227,41.42774 -45.71289,-48.57032 5.53986,34.80426 -41.72304,-12.38712 28.37652,27.80666 -13.36423,19.61657 54.2055,16.23023 L 330,356.28516 342.80197,392.95782 C 283.3981,466.96507 146.45046,450.14587 75.519106,353.91878 19.071247,277.34033 26.936542,148.41857 77.1875,72.847656 27.841909,121.01158 0.01273052,187.0453 0,256 1.6568545e-5,397.38495 114.61505,511.99998 256,512 397.38495,511.99998 511.99998,397.38495 512,256 511.99998,114.61505 397.38495,1.6568545e-5 256,0 Z m -46.12891,65.902344 c 6.5103,0.250114 11.21677,3.574179 11.94922,8.439453 1.0068,6.686975 -5.70688,14.097559 -14.99609,16.552734 -9.28998,2.454595 -17.63735,-0.976694 -18.64453,-7.664062 -1.0068,-6.686976 5.70688,-14.09756 14.99609,-16.552735 2.2506,-0.594821 4.52732,-0.85849 6.69531,-0.77539 z"
       transform="translate(0,540.36231)"
       id="path5402"
       inkscape:connector-curvature="0"
       sodipodi:nodetypes="cccscccccccccccccccccccccccsccsscccccsc" />
    <path
       style="color:#000000;font-style:normal;font-variant:normal;font-weight:normal;font-stretch:normal;font-size:medium;line-height:normal;font-family:sans-serif;text-indent:0;text-align:start;text-decoration:none;text-decoration-line:none;text-decoration-style:solid;text-decoration-color:#000000;letter-spacing:normal;word-spacing:normal;text-transform:none;direction:ltr;block-progression:tb;writing-mode:lr-tb;baseline-shift:baseline;text-anchor:start;white-space:normal;clip-rule:nonzero;display:inline;overflow:visible;visibility:visible;opacity:1;isolation:auto;mix-blend-mode:normal;color-interpolation:sRGB;color-interpolation-filters:linearRGB;solid-color:#000000;solid-opacity:1;fill:#000000;fill-opacity:1;fill-rule:nonzero;stroke:none;stroke-width:10.55035782;stroke-linecap:butt;stroke-linejoin:miter;stroke-miterlimit:4;stroke-dasharray:none;stroke-dashoffset:0;stroke-opacity:1;color-rendering:auto;image-rendering:auto;shape-rendering:auto;text-rendering:auto;enable-background:accumulate"
       d="m 256,699.53906 c -53.41136,0 -96.82227,43.41286 -96.82227,96.82422 0,53.41136 43.41091,96.82227 96.82227,96.82227 53.41136,0 96.82227,-43.41091 96.82227,-96.82227 0,-53.41136 -43.41091,-96.82422 -96.82227,-96.82422 z m 0,10.55078 c 47.70953,0 86.27344,38.56392 86.27344,86.27344 0,47.70953 -38.56391,86.27149 -86.27344,86.27149 -47.70953,0 -86.27344,-38.56196 -86.27344,-86.27149 0,-47.70952 38.56391,-86.27344 86.27344,-86.27344 z"
       id="path5418"
       inkscape:connector-curvature="0" />
  </g>
</svg>
