<?xml version="1.0" encoding="UTF-8" standalone="no"?>
<!-- Created with Inkscape (http://www.inkscape.org/) -->

<svg
   xmlns:dc="http://purl.org/dc/elements/1.1/"
   xmlns:cc="http://creativecommons.org/ns#"
   xmlns:rdf="http://www.w3.org/1999/02/22-rdf-syntax-ns#"
   xmlns:svg="http://www.w3.org/2000/svg"
   xmlns="http://www.w3.org/2000/svg"
   xmlns:sodipodi="http://sodipodi.sourceforge.net/DTD/sodipodi-0.dtd"
   xmlns:inkscape="http://www.inkscape.org/namespaces/inkscape"
   width="512"
   height="512"
   id="svg3360"
   version="1.1"
   inkscape:version="0.91 r13725"
   viewBox="0 0 512 512"
   sodipodi:docname="parens.svg">
  <defs
     id="defs3362" />
  <sodipodi:namedview
     id="base"
     pagecolor="#ffffff"
     bordercolor="#666666"
     borderopacity="1.0"
     inkscape:pageopacity="0.0"
     inkscape:pageshadow="2"
     inkscape:zoom="1.4142136"
     inkscape:cx="78.54276"
     inkscape:cy="326.17084"
     inkscape:current-layer="text3368"
     showgrid="true"
     inkscape:document-units="px"
     inkscape:grid-bbox="true"
     inkscape:window-width="1916"
     inkscape:window-height="1041"
     inkscape:window-x="0"
     inkscape:window-y="37"
     inkscape:window-maximized="0"
     showguides="false" />
  <metadata
     id="metadata3365">
    <rdf:RDF>
      <cc:Work
         rdf:about="">
        <dc:format>image/svg+xml</dc:format>
        <dc:type
           rdf:resource="http://purl.org/dc/dcmitype/StillImage" />
        <dc:title />
      </cc:Work>
    </rdf:RDF>
  </metadata>
  <g
     id="layer1"
     inkscape:label="Layer 1"
     inkscape:groupmode="layer"
     transform="translate(0,448)">
    <g
       style="font-style:normal;font-weight:normal;font-size:54.9610405px;line-height:125%;font-family:sans-serif;letter-spacing:0px;word-spacing:0px;fill:#000000;fill-opacity:1;stroke:none;stroke-width:1px;stroke-linecap:butt;stroke-linejoin:miter;stroke-opacity:1"
       id="text3368">
      <path
         style="color:#000000;font-style:normal;font-weight:normal;font-size:54.9610405px;line-height:125%;font-family:sans-serif;letter-spacing:0px;word-spacing:0px;clip-rule:nonzero;display:inline;overflow:visible;visibility:visible;opacity:1;isolation:auto;mix-blend-mode:normal;color-interpolation:sRGB;color-interpolation-filters:linearRGB;solid-color:#000000;solid-opacity:1;fill:#636363;fill-opacity:1;fill-rule:evenodd;stroke:none;stroke-width:1px;stroke-linecap:butt;stroke-linejoin:miter;stroke-miterlimit:4;stroke-dasharray:none;stroke-dashoffset:0;stroke-opacity:1;color-rendering:auto;image-rendering:auto;shape-rendering:auto;text-rendering:auto;enable-background:accumulate"
         d="M 177.66016 40.826172 A 224.15283 229.80971 0 0 0 31.847656 256 A 224.15283 229.80971 0 0 0 177.32031 470.89062 A 155.30043 249.60869 0 0 1 164.65625 457.51953 A 155.30043 249.60869 0 0 0 168.48633 462.18555 A 175.19113 238.29498 0 0 1 80.808594 256 A 175.19113 238.29498 0 0 1 169.01367 49.498047 A 155.30043 249.60869 0 0 0 100.69922 256 A 155.30043 249.60869 0 0 1 177.66016 40.826172 z M 100.69922 256 A 155.30043 249.60869 0 0 0 100.97656 268.35547 A 155.30043 249.60869 0 0 1 100.69922 256 z M 100.97656 268.35547 A 155.30043 249.60869 0 0 0 101.80273 283.12305 A 155.30043 249.60869 0 0 1 100.97656 268.35547 z M 101.80273 283.12305 A 155.30043 249.60869 0 0 0 102.625 293.88867 A 155.30043 249.60869 0 0 1 101.80273 283.12305 z M 102.625 293.88867 A 155.30043 249.60869 0 0 0 104.37695 308.57617 A 155.30043 249.60869 0 0 1 102.625 293.88867 z M 104.37695 308.57617 A 155.30043 249.60869 0 0 0 105.6875 317.89648 A 155.30043 249.60869 0 0 1 104.37695 308.57617 z M 105.6875 317.89648 A 155.30043 249.60869 0 0 0 108.57812 333.49805 A 155.30043 249.60869 0 0 1 105.6875 317.89648 z M 108.57812 333.49805 A 155.30043 249.60869 0 0 0 110.19922 341.29883 A 155.30043 249.60869 0 0 1 108.57812 333.49805 z M 110.19922 341.29883 A 155.30043 249.60869 0 0 0 114.35938 357.58594 A 155.30043 249.60869 0 0 1 110.19922 341.29883 z M 114.35938 357.58594 A 155.30043 249.60869 0 0 0 116.12109 363.89258 A 155.30043 249.60869 0 0 1 114.35938 357.58594 z M 116.12109 363.89258 A 155.30043 249.60869 0 0 0 121.62695 380.5 A 155.30043 249.60869 0 0 1 116.12109 363.89258 z M 121.62695 380.5 A 155.30043 249.60869 0 0 0 123.41016 385.48047 A 155.30043 249.60869 0 0 1 121.62695 380.5 z M 123.41016 385.48047 A 155.30043 249.60869 0 0 0 130.31055 402.0625 A 155.30043 249.60869 0 0 1 123.41016 385.48047 z M 130.31055 402.0625 A 155.30043 249.60869 0 0 0 131.99023 405.82617 A 155.30043 249.60869 0 0 1 130.31055 402.0625 z M 131.99023 405.82617 A 155.30043 249.60869 0 0 0 140.30078 422.0293 A 155.30043 249.60869 0 0 1 131.99023 405.82617 z M 140.30078 422.0293 A 155.30043 249.60869 0 0 0 141.78711 424.74023 A 155.30043 249.60869 0 0 1 140.30078 422.0293 z M 141.78711 424.74023 A 155.30043 249.60869 0 0 0 151.49805 440.21875 A 155.30043 249.60869 0 0 1 141.78711 424.74023 z M 151.49805 440.21875 A 155.30043 249.60869 0 0 0 152.70508 442.02148 A 155.30043 249.60869 0 0 1 151.49805 440.21875 z M 152.70508 442.02148 A 155.30043 249.60869 0 0 0 163.75 456.41406 A 155.30043 249.60869 0 0 1 152.70508 442.02148 z M 163.75 456.41406 A 155.30043 249.60869 0 0 0 164.65625 457.51953 A 155.30043 249.60869 0 0 1 163.75 456.41406 z M 334.67969 41.109375 A 155.30043 249.60869 0 0 1 347.34375 54.480469 A 155.30043 249.60869 0 0 0 343.51367 49.814453 A 175.19113 238.29498 0 0 1 431.19141 256 A 175.19113 238.29498 0 0 1 342.98633 462.50195 A 155.30043 249.60869 0 0 0 411.30078 256 A 155.30043 249.60869 0 0 1 334.33984 471.17383 A 224.15283 229.80971 0 0 0 480.15234 256 A 224.15283 229.80971 0 0 0 334.67969 41.109375 z M 411.30078 256 A 155.30043 249.60869 0 0 0 411.02344 243.64453 A 155.30043 249.60869 0 0 1 411.30078 256 z M 411.02344 243.64453 A 155.30043 249.60869 0 0 0 410.19727 228.87695 A 155.30043 249.60869 0 0 1 411.02344 243.64453 z M 410.19727 228.87695 A 155.30043 249.60869 0 0 0 409.375 218.11133 A 155.30043 249.60869 0 0 1 410.19727 228.87695 z M 409.375 218.11133 A 155.30043 249.60869 0 0 0 407.62305 203.42383 A 155.30043 249.60869 0 0 1 409.375 218.11133 z M 407.62305 203.42383 A 155.30043 249.60869 0 0 0 406.3125 194.10352 A 155.30043 249.60869 0 0 1 407.62305 203.42383 z M 406.3125 194.10352 A 155.30043 249.60869 0 0 0 403.42188 178.50195 A 155.30043 249.60869 0 0 1 406.3125 194.10352 z M 403.42188 178.50195 A 155.30043 249.60869 0 0 0 401.80078 170.70117 A 155.30043 249.60869 0 0 1 403.42188 178.50195 z M 401.80078 170.70117 A 155.30043 249.60869 0 0 0 397.64062 154.41406 A 155.30043 249.60869 0 0 1 401.80078 170.70117 z M 397.64062 154.41406 A 155.30043 249.60869 0 0 0 395.87891 148.10742 A 155.30043 249.60869 0 0 1 397.64062 154.41406 z M 395.87891 148.10742 A 155.30043 249.60869 0 0 0 390.37305 131.5 A 155.30043 249.60869 0 0 1 395.87891 148.10742 z M 390.37305 131.5 A 155.30043 249.60869 0 0 0 388.58984 126.51953 A 155.30043 249.60869 0 0 1 390.37305 131.5 z M 388.58984 126.51953 A 155.30043 249.60869 0 0 0 381.68945 109.9375 A 155.30043 249.60869 0 0 1 388.58984 126.51953 z M 381.68945 109.9375 A 155.30043 249.60869 0 0 0 380.00977 106.17383 A 155.30043 249.60869 0 0 1 381.68945 109.9375 z M 380.00977 106.17383 A 155.30043 249.60869 0 0 0 371.69922 89.970703 A 155.30043 249.60869 0 0 1 380.00977 106.17383 z M 371.69922 89.970703 A 155.30043 249.60869 0 0 0 370.21289 87.259766 A 155.30043 249.60869 0 0 1 371.69922 89.970703 z M 370.21289 87.259766 A 155.30043 249.60869 0 0 0 360.50195 71.78125 A 155.30043 249.60869 0 0 1 370.21289 87.259766 z M 360.50195 71.78125 A 155.30043 249.60869 0 0 0 359.29492 69.978516 A 155.30043 249.60869 0 0 1 360.50195 71.78125 z M 359.29492 69.978516 A 155.30043 249.60869 0 0 0 348.25 55.585938 A 155.30043 249.60869 0 0 1 359.29492 69.978516 z M 348.25 55.585938 A 155.30043 249.60869 0 0 0 347.34375 54.480469 A 155.30043 249.60869 0 0 1 348.25 55.585938 z "
         transform="translate(0,-448)"
         id="path7311-7" />
      <path
         style="color:#000000;clip-rule:nonzero;display:inline;overflow:visible;visibility:visible;opacity:1;isolation:auto;mix-blend-mode:normal;color-interpolation:sRGB;color-interpolation-filters:linearRGB;solid-color:#000000;solid-opacity:1;fill:#383838;fill-opacity:1;fill-rule:evenodd;stroke:none;stroke-width:1px;stroke-linecap:butt;stroke-linejoin:miter;stroke-miterlimit:4;stroke-dasharray:none;stroke-dashoffset:0;stroke-opacity:1;color-rendering:auto;image-rendering:auto;shape-rendering:auto;text-rendering:auto;enable-background:accumulate"
         d="M 340.13867 46.490234 A 155.30043 249.60869 0 0 1 352.31055 60.533203 A 155.30043 249.60869 0 0 0 343.51367 49.814453 A 175.19113 238.29498 0 0 1 431.19141 256 A 175.19113 238.29498 0 0 1 342.98633 462.50195 A 155.30043 249.60869 0 0 0 343.71875 461.64062 A 155.30043 249.60869 0 0 1 340.70312 465.12695 A 205.79221 229.80971 0 0 0 461.79297 256 A 205.79221 229.80971 0 0 0 340.13867 46.490234 z M 343.71875 461.64062 A 155.30043 249.60869 0 0 0 411.30078 256 A 155.30043 249.60869 0 0 1 343.71875 461.64062 z M 411.30078 256 A 155.30043 249.60869 0 0 0 410.64258 234.68555 A 155.30043 249.60869 0 0 1 411.30078 256 z M 410.64258 234.68555 A 155.30043 249.60869 0 0 0 409.81445 223.86914 A 155.30043 249.60869 0 0 1 410.64258 234.68555 z M 409.81445 223.86914 A 155.30043 249.60869 0 0 0 408.48633 209.57812 A 155.30043 249.60869 0 0 1 409.81445 223.86914 z M 408.48633 209.57812 A 155.30043 249.60869 0 0 0 407.19141 200.35547 A 155.30043 249.60869 0 0 1 408.48633 209.57812 z M 407.19141 200.35547 A 155.30043 249.60869 0 0 0 404.76562 184.97852 A 155.30043 249.60869 0 0 1 407.19141 200.35547 z M 404.76562 184.97852 A 155.30043 249.60869 0 0 0 403.19141 177.39648 A 155.30043 249.60869 0 0 1 404.76562 184.97852 z M 403.19141 177.39648 A 155.30043 249.60869 0 0 0 399.51172 161.10547 A 155.30043 249.60869 0 0 1 403.19141 177.39648 z M 399.51172 161.10547 A 155.30043 249.60869 0 0 0 397.83203 155.09766 A 155.30043 249.60869 0 0 1 399.51172 161.10547 z M 397.83203 155.09766 A 155.30043 249.60869 0 0 0 392.80078 138.2793 A 155.30043 249.60869 0 0 1 397.83203 155.09766 z M 392.80078 138.2793 A 155.30043 249.60869 0 0 0 391.125 133.60156 A 155.30043 249.60869 0 0 1 392.80078 138.2793 z M 391.125 133.60156 A 155.30043 249.60869 0 0 0 384.68164 116.64258 A 155.30043 249.60869 0 0 1 391.125 133.60156 z M 384.68164 116.64258 A 155.30043 249.60869 0 0 0 383.17188 113.25781 A 155.30043 249.60869 0 0 1 384.68164 116.64258 z M 383.17188 113.25781 A 155.30043 249.60869 0 0 0 375.25391 96.457031 A 155.30043 249.60869 0 0 1 383.17188 113.25781 z M 375.25391 96.457031 A 155.30043 249.60869 0 0 0 374.00195 94.173828 A 155.30043 249.60869 0 0 1 375.25391 96.457031 z M 374.00195 94.173828 A 155.30043 249.60869 0 0 0 364.62305 77.935547 A 155.30043 249.60869 0 0 1 374.00195 94.173828 z M 364.62305 77.935547 A 155.30043 249.60869 0 0 0 363.67773 76.525391 A 155.30043 249.60869 0 0 1 364.62305 77.935547 z M 363.67773 76.525391 A 155.30043 249.60869 0 0 0 352.89258 61.242188 A 155.30043 249.60869 0 0 1 363.67773 76.525391 z M 352.89258 61.242188 A 155.30043 249.60869 0 0 0 352.31055 60.533203 A 155.30043 249.60869 0 0 1 352.89258 61.242188 z M 171.29688 46.873047 A 205.79221 229.80971 0 0 0 50.207031 256 A 205.79221 229.80971 0 0 0 171.86133 465.50977 A 155.30043 249.60869 0 0 1 159.68945 451.4668 A 155.30043 249.60869 0 0 0 168.48633 462.18555 A 175.19113 238.29498 0 0 1 80.808594 256 A 175.19113 238.29498 0 0 1 169.01367 49.498047 A 155.30043 249.60869 0 0 0 168.28125 50.359375 A 155.30043 249.60869 0 0 1 171.29688 46.873047 z M 168.28125 50.359375 A 155.30043 249.60869 0 0 0 100.69922 256 A 155.30043 249.60869 0 0 1 168.28125 50.359375 z M 100.69922 256 A 155.30043 249.60869 0 0 0 101.35742 277.31445 A 155.30043 249.60869 0 0 1 100.69922 256 z M 101.35742 277.31445 A 155.30043 249.60869 0 0 0 102.18555 288.13086 A 155.30043 249.60869 0 0 1 101.35742 277.31445 z M 102.18555 288.13086 A 155.30043 249.60869 0 0 0 103.51367 302.42188 A 155.30043 249.60869 0 0 1 102.18555 288.13086 z M 103.51367 302.42188 A 155.30043 249.60869 0 0 0 104.80859 311.64453 A 155.30043 249.60869 0 0 1 103.51367 302.42188 z M 104.80859 311.64453 A 155.30043 249.60869 0 0 0 107.23438 327.02148 A 155.30043 249.60869 0 0 1 104.80859 311.64453 z M 107.23438 327.02148 A 155.30043 249.60869 0 0 0 108.80859 334.60352 A 155.30043 249.60869 0 0 1 107.23438 327.02148 z M 108.80859 334.60352 A 155.30043 249.60869 0 0 0 112.48828 350.89453 A 155.30043 249.60869 0 0 1 108.80859 334.60352 z M 112.48828 350.89453 A 155.30043 249.60869 0 0 0 114.16797 356.90234 A 155.30043 249.60869 0 0 1 112.48828 350.89453 z M 114.16797 356.90234 A 155.30043 249.60869 0 0 0 119.19922 373.7207 A 155.30043 249.60869 0 0 1 114.16797 356.90234 z M 119.19922 373.7207 A 155.30043 249.60869 0 0 0 120.875 378.39844 A 155.30043 249.60869 0 0 1 119.19922 373.7207 z M 120.875 378.39844 A 155.30043 249.60869 0 0 0 127.31836 395.35742 A 155.30043 249.60869 0 0 1 120.875 378.39844 z M 127.31836 395.35742 A 155.30043 249.60869 0 0 0 128.82812 398.74219 A 155.30043 249.60869 0 0 1 127.31836 395.35742 z M 128.82812 398.74219 A 155.30043 249.60869 0 0 0 136.74609 415.54297 A 155.30043 249.60869 0 0 1 128.82812 398.74219 z M 136.74609 415.54297 A 155.30043 249.60869 0 0 0 137.99805 417.82617 A 155.30043 249.60869 0 0 1 136.74609 415.54297 z M 137.99805 417.82617 A 155.30043 249.60869 0 0 0 147.37695 434.06445 A 155.30043 249.60869 0 0 1 137.99805 417.82617 z M 147.37695 434.06445 A 155.30043 249.60869 0 0 0 148.32227 435.47461 A 155.30043 249.60869 0 0 1 147.37695 434.06445 z M 148.32227 435.47461 A 155.30043 249.60869 0 0 0 159.10742 450.75781 A 155.30043 249.60869 0 0 1 148.32227 435.47461 z M 159.10742 450.75781 A 155.30043 249.60869 0 0 0 159.68945 451.4668 A 155.30043 249.60869 0 0 1 159.10742 450.75781 z "
         transform="translate(0,-448)"
         id="path7311" />
      <path
         style="color:#000000;font-style:normal;font-weight:normal;font-size:54.9610405px;line-height:125%;font-family:sans-serif;letter-spacing:0px;word-spacing:0px;clip-rule:nonzero;display:inline;overflow:visible;visibility:visible;opacity:1;isolation:auto;mix-blend-mode:normal;color-interpolation:sRGB;color-interpolation-filters:linearRGB;solid-color:#000000;solid-opacity:1;fill:#a6a6a6;fill-opacity:1;fill-rule:evenodd;stroke:none;stroke-width:1px;stroke-linecap:butt;stroke-linejoin:miter;stroke-miterlimit:4;stroke-dasharray:none;stroke-dashoffset:0;stroke-opacity:1;color-rendering:auto;image-rendering:auto;shape-rendering:auto;text-rendering:auto;enable-background:accumulate"
         d="M 169.01367 49.498047 A 175.19113 238.29498 0 0 0 80.808594 256 A 175.19113 238.29498 0 0 0 168.48633 462.18555 A 155.30043 249.60869 0 0 1 100.69922 256 A 155.30043 249.60869 0 0 1 169.01367 49.498047 z M 343.51367 49.814453 A 155.30043 249.60869 0 0 1 411.30078 256 A 155.30043 249.60869 0 0 1 342.98633 462.50195 A 175.19113 238.29498 0 0 0 431.19141 256 A 175.19113 238.29498 0 0 0 343.51367 49.814453 z "
         id="path7311-2-0"
         transform="translate(0,-448)" />
      <flowRoot
         xml:space="preserve"
         id="flowRoot7359"
         style="font-style:normal;font-weight:normal;font-size:625px;line-height:125%;font-family:sans-serif;letter-spacing:0px;word-spacing:0px;fill:#000000;fill-opacity:1;stroke:none;stroke-width:1px;stroke-linecap:butt;stroke-linejoin:miter;stroke-opacity:1"
         transform="translate(0,-448)"><flowRegion
           id="flowRegion7361"><rect
             id="rect7363"
             width="386.08029"
             height="345.06812"
             x="-120.20815"
             y="113.19177"
             style="font-size:625px" /></flowRegion><flowPara
           id="flowPara7365"
           style="font-size:625px">SS</flowPara></flowRoot>    </g>
  </g>
</svg>
