<?xml version="1.0" encoding="UTF-8" standalone="no"?>
<!-- Created with Inkscape (http://www.inkscape.org/) -->

<svg
   xmlns:dc="http://purl.org/dc/elements/1.1/"
   xmlns:cc="http://creativecommons.org/ns#"
   xmlns:rdf="http://www.w3.org/1999/02/22-rdf-syntax-ns#"
   xmlns:svg="http://www.w3.org/2000/svg"
   xmlns="http://www.w3.org/2000/svg"
   xmlns:sodipodi="http://sodipodi.sourceforge.net/DTD/sodipodi-0.dtd"
   xmlns:inkscape="http://www.inkscape.org/namespaces/inkscape"
   width="512"
   height="512"
   id="svg4739"
   version="1.1"
   inkscape:version="0.91 r13725"
   viewBox="0 0 512 512"
   sodipodi:docname="python-inverted.svg">
  <defs
     id="defs4741" />
  <sodipodi:namedview
     id="base"
     pagecolor="#ffffff"
     bordercolor="#666666"
     borderopacity="1.0"
     inkscape:pageopacity="0.0"
     inkscape:pageshadow="2"
     inkscape:zoom="0.97227183"
     inkscape:cx="104.86661"
     inkscape:cy="153.94887"
     inkscape:current-layer="layer1"
     showgrid="true"
     inkscape:document-units="px"
     inkscape:grid-bbox="true"
     inkscape:window-width="1916"
     inkscape:window-height="1041"
     inkscape:window-x="0"
     inkscape:window-y="37"
     inkscape:window-maximized="0"
     fit-margin-top="0"
     fit-margin-left="0"
     fit-margin-right="0"
     fit-margin-bottom="0" />
  <metadata
     id="metadata4744">
    <rdf:RDF>
      <cc:Work
         rdf:about="">
        <dc:format>image/svg+xml</dc:format>
        <dc:type
           rdf:resource="http://purl.org/dc/dcmitype/StillImage" />
        <dc:title></dc:title>
      </cc:Work>
    </rdf:RDF>
  </metadata>
  <g
     id="layer1"
     inkscape:label="Layer 1"
     inkscape:groupmode="layer"
     transform="translate(-2,450)">
    <path
       style="color:#000000;clip-rule:nonzero;display:inline;overflow:visible;visibility:visible;opacity:1;isolation:auto;mix-blend-mode:normal;color-interpolation:sRGB;color-interpolation-filters:linearRGB;solid-color:#000000;solid-opacity:1;fill:#000000;fill-opacity:1;fill-rule:evenodd;stroke:none;stroke-width:1px;stroke-linecap:butt;stroke-linejoin:miter;stroke-miterlimit:4;stroke-dasharray:none;stroke-dashoffset:0;stroke-opacity:1;color-rendering:auto;image-rendering:auto;shape-rendering:auto;text-rendering:auto;enable-background:accumulate"
       d="M 0,512 Z M 275.30078,57.882812 c -37.66585,-0.0067 -77.21048,9.399991 -109.2832,29 C 82.235749,138.08281 94.644457,226.52673 169.11719,335.13281 236.63808,433.60074 175.40813,486.48379 116.15039,512 l 182.63281,0 C 339.9187,440.36933 323.12182,358.40839 242.05078,279.26758 111.7235,152.04333 243.58347,127.22752 277.7168,133.43359 c 0,0 -8.39849,15.1055 9.59961,22.25 88.7122,35.21509 174.65975,59.87962 131.20117,-33.11718 -23.95948,-51.270802 -69.6972,-59.924313 -127.2168,-64.099613 -5.27682,-0.38304 -10.61917,-0.583033 -16,-0.583985 z m 43.41602,63.984378 c 1.98701,-0.0409 4.04306,0.30608 6,1.01562 6.84745,2.48882 10.86915,8.71343 8.98242,13.90039 -1.8834,5.19104 -8.96739,7.37779 -15.81641,4.88282 -6.84746,-2.48881 -10.86917,-8.71148 -8.98242,-13.89844 1.2864,-3.53082 5.07919,-5.81089 9.81641,-5.90039 z"
       transform="translate(2,-450)"
       id="rect8711"
       inkscape:connector-curvature="0"
       sodipodi:nodetypes="ccsssccscsssscccccc" />
  </g>
</svg>
