<?xml version="1.0" encoding="UTF-8" standalone="no"?>
<!-- Created with Inkscape (http://www.inkscape.org/) -->

<svg
   xmlns:dc="http://purl.org/dc/elements/1.1/"
   xmlns:cc="http://creativecommons.org/ns#"
   xmlns:rdf="http://www.w3.org/1999/02/22-rdf-syntax-ns#"
   xmlns:svg="http://www.w3.org/2000/svg"
   xmlns="http://www.w3.org/2000/svg"
   xmlns:sodipodi="http://sodipodi.sourceforge.net/DTD/sodipodi-0.dtd"
   xmlns:inkscape="http://www.inkscape.org/namespaces/inkscape"
   width="512"
   height="512"
   id="svg4739"
   version="1.1"
   inkscape:version="0.91 r13725"
   viewBox="0 0 512 512"
   sodipodi:docname="python-rounded.svg">
  <defs
     id="defs4741" />
  <sodipodi:namedview
     id="base"
     pagecolor="#ffffff"
     bordercolor="#666666"
     borderopacity="1.0"
     inkscape:pageopacity="0.0"
     inkscape:pageshadow="2"
     inkscape:zoom="0.97227183"
     inkscape:cx="106.00333"
     inkscape:cy="154.00824"
     inkscape:current-layer="layer1"
     showgrid="true"
     inkscape:document-units="px"
     inkscape:grid-bbox="true"
     inkscape:window-width="956"
     inkscape:window-height="1041"
     inkscape:window-x="960"
     inkscape:window-y="37"
     inkscape:window-maximized="0"
     fit-margin-top="0"
     fit-margin-left="0"
     fit-margin-right="0"
     fit-margin-bottom="0" />
  <metadata
     id="metadata4744">
    <rdf:RDF>
      <cc:Work
         rdf:about="">
        <dc:format>image/svg+xml</dc:format>
        <dc:type
           rdf:resource="http://purl.org/dc/dcmitype/StillImage" />
        <dc:title></dc:title>
      </cc:Work>
    </rdf:RDF>
  </metadata>
  <g
     id="layer1"
     inkscape:label="Layer 1"
     inkscape:groupmode="layer"
     transform="translate(-2,450)">
    <path
       style="opacity:1;fill:#000000;fill-opacity:1;stroke:none"
       d="M 90.4,-450 C 41.424804,-450 2,-410.57519 2,-361.6 L 2,-26.4 C 2,22.575198 41.424804,62 90.4,62 l 27.75,0 c 59.25774,-25.516211 120.48755,-78.398729 52.96666,-176.86666 -74.472726,-108.60608 -86.881815,-197.05 -3.09999,-248.25 32.07272,-19.60001 71.61748,-29.00671 109.28333,-29 5.38083,9.5e-4 10.72318,0.20028 16,0.58332 57.5196,4.1753 103.25719,12.82921 127.21667,64.1 43.45858,92.9968 -42.4878,68.33177 -131.2,33.11668 -17.9981,-7.1445 -9.6,-22.25 -9.6,-22.25 -34.13333,-6.20607 -165.99395,18.60907 -35.66667,145.83332 C 325.12104,-91.592533 341.91883,-9.6306687 300.78333,62 L 425.6,62 C 474.57519,62 514,22.575198 514,-26.4 l 0,-335.2 c 0,-48.97519 -39.42481,-88.4 -88.4,-88.4 l -335.2,0 z m 230.31666,121.86666 c -4.73722,0.0895 -8.53025,2.36918 -9.81665,5.9 -1.88675,5.18696 2.13586,11.41119 8.98332,13.9 6.84902,2.49497 13.93328,0.30772 15.81668,-4.88332 1.88673,-5.18696 -2.13589,-11.41119 -8.98334,-13.90001 -1.95694,-0.70954 -4.013,-1.05762 -6.00001,-1.01667 z"
       id="rect5295"
       inkscape:connector-curvature="0" />
  </g>
</svg>
