<?xml version="1.0" encoding="UTF-8" standalone="no"?>
<!-- Created with Inkscape (http://www.inkscape.org/) -->

<svg
   xmlns:dc="http://purl.org/dc/elements/1.1/"
   xmlns:cc="http://creativecommons.org/ns#"
   xmlns:rdf="http://www.w3.org/1999/02/22-rdf-syntax-ns#"
   xmlns:svg="http://www.w3.org/2000/svg"
   xmlns="http://www.w3.org/2000/svg"
   xmlns:sodipodi="http://sodipodi.sourceforge.net/DTD/sodipodi-0.dtd"
   xmlns:inkscape="http://www.inkscape.org/namespaces/inkscape"
   width="512"
   height="512"
   id="svg4739"
   version="1.1"
   inkscape:version="0.91 r13725"
   viewBox="0 0 512 512"
   sodipodi:docname="python-circle.svg">
  <defs
     id="defs4741" />
  <sodipodi:namedview
     id="base"
     pagecolor="#ffffff"
     bordercolor="#666666"
     borderopacity="1.0"
     inkscape:pageopacity="0.0"
     inkscape:pageshadow="2"
     inkscape:zoom="0.97227183"
     inkscape:cx="104.86661"
     inkscape:cy="153.94887"
     inkscape:current-layer="layer1"
     showgrid="true"
     inkscape:document-units="px"
     inkscape:grid-bbox="true"
     inkscape:window-width="1916"
     inkscape:window-height="1041"
     inkscape:window-x="0"
     inkscape:window-y="37"
     inkscape:window-maximized="0"
     fit-margin-top="0"
     fit-margin-left="0"
     fit-margin-right="0"
     fit-margin-bottom="0" />
  <metadata
     id="metadata4744">
    <rdf:RDF>
      <cc:Work
         rdf:about="">
        <dc:format>image/svg+xml</dc:format>
        <dc:type
           rdf:resource="http://purl.org/dc/dcmitype/StillImage" />
        <dc:title></dc:title>
      </cc:Work>
    </rdf:RDF>
  </metadata>
  <g
     id="layer1"
     inkscape:label="Layer 1"
     inkscape:groupmode="layer"
     transform="translate(-2,450)">
    <path
       style="opacity:1;fill:#000000;fill-opacity:1;stroke:none"
       d="M 258,-446.40722 A 254.55843,254.55843 0 0 0 3.4414081,-191.84863 254.55843,254.55843 0 0 0 157.67383,42.036135 c 41.05198,-30.07797 65.46923,-78.88093 13.44336,-154.751955 -74.472731,-108.60608 -86.881439,-197.05 -3.09961,-248.25 32.07272,-19.60001 71.61735,-29.00671 109.2832,-29 5.38083,9.5e-4 10.72318,0.20095 16,0.58399 57.5196,4.1753 103.25732,12.82881 127.2168,64.09961 43.45858,92.9968 -42.48897,68.33227 -131.20117,33.11718 -17.9981,-7.1445 -9.59961,-22.25 -9.59961,-22.25 -34.13333,-6.20607 -165.9933,18.60974 -35.66602,145.83399 78.91291,77.034055 96.92056,156.738155 59.88672,226.988275 A 254.55843,254.55843 0 0 0 512.55859,-191.84863 254.55843,254.55843 0 0 0 258,-446.40722 Z m 62.7168,120.42578 c -4.73722,0.0895 -8.53001,2.36957 -9.81641,5.90039 -1.88675,5.18696 2.13496,11.40963 8.98242,13.89844 6.84902,2.49497 13.93301,0.30822 15.81641,-4.88282 1.88673,-5.18696 -2.13497,-11.41157 -8.98242,-13.90039 -1.95694,-0.70954 -4.01299,-1.05657 -6,-1.01562 z"
       id="rect5295"
       inkscape:connector-curvature="0" />
  </g>
</svg>
