<?xml version="1.0" encoding="UTF-8" standalone="no"?>
<!-- Created with Inkscape (http://www.inkscape.org/) -->

<svg
   xmlns:dc="http://purl.org/dc/elements/1.1/"
   xmlns:cc="http://creativecommons.org/ns#"
   xmlns:rdf="http://www.w3.org/1999/02/22-rdf-syntax-ns#"
   xmlns:svg="http://www.w3.org/2000/svg"
   xmlns="http://www.w3.org/2000/svg"
   xmlns:sodipodi="http://sodipodi.sourceforge.net/DTD/sodipodi-0.dtd"
   xmlns:inkscape="http://www.inkscape.org/namespaces/inkscape"
   width="512"
   height="512"
   id="svg3360"
   version="1.1"
   inkscape:version="0.91 r13725"
   viewBox="0 0 512 512"
   sodipodi:docname="python-spiral.svg">
  <defs
     id="defs3362" />
  <sodipodi:namedview
     id="base"
     pagecolor="#ffffff"
     bordercolor="#666666"
     borderopacity="1.0"
     inkscape:pageopacity="0.0"
     inkscape:pageshadow="2"
     inkscape:zoom="1.4142136"
     inkscape:cx="78.393286"
     inkscape:cy="189.68655"
     inkscape:current-layer="text3368"
     showgrid="true"
     inkscape:document-units="px"
     inkscape:grid-bbox="true"
     inkscape:window-width="1916"
     inkscape:window-height="1041"
     inkscape:window-x="0"
     inkscape:window-y="37"
     inkscape:window-maximized="0"
     showguides="false" />
  <metadata
     id="metadata3365">
    <rdf:RDF>
      <cc:Work
         rdf:about="">
        <dc:format>image/svg+xml</dc:format>
        <dc:type
           rdf:resource="http://purl.org/dc/dcmitype/StillImage" />
        <dc:title />
      </cc:Work>
    </rdf:RDF>
  </metadata>
  <g
     id="layer1"
     inkscape:label="Layer 1"
     inkscape:groupmode="layer"
     transform="translate(0,448)">
    <g
       style="font-style:normal;font-weight:normal;font-size:54.9610405px;line-height:125%;font-family:sans-serif;letter-spacing:0px;word-spacing:0px;fill:#000000;fill-opacity:1;stroke:none;stroke-width:1px;stroke-linecap:butt;stroke-linejoin:miter;stroke-opacity:1"
       id="text3368">
      <path
         style="font-style:normal;font-weight:normal;font-size:54.9610405px;line-height:125%;font-family:sans-serif;letter-spacing:0px;word-spacing:0px;fill:#000000;fill-opacity:1;fill-rule:evenodd;stroke:none;stroke-width:1px;stroke-linecap:butt;stroke-linejoin:miter;stroke-opacity:1"
         d="M 249.29883 23.455078 C 187.1936 23.733902 125.32133 46.625284 78.429688 93.138672 C -11.896276 182.73589 -15.917404 334.17587 75.291016 424.73438 C 159.20566 508.05107 300.33305 511.34128 383.73633 425.39648 C 458.85534 347.98877 461.24246 218.63979 381.07812 143.75195 C 311.45119 78.708009 195.90409 77.451762 131.91797 151.36523 C 80.598039 210.6473 80.299782 310.26619 148.69531 357.29297 C 170.23467 372.10273 197.79036 380.16099 222.41797 381.46484 C 222.41797 381.46484 230.15725 397.09023 252.27344 397.71289 C 276.70809 397.71289 316.40065 400.42716 349.72852 389.05273 C 377.79777 379.47301 335.62159 315.34766 222.74609 315.34766 C 158.25899 315.34766 160.07531 235.31323 178.86523 202.44336 C 214.01136 149.98251 289.10602 148.18194 336.01172 185.16992 C 384.35427 223.29095 395.99346 292.18722 367.5332 355.93555 C 384.45163 391.39085 370.24603 402.86771 329.15039 407.93359 C 264.58183 460.5476 166.60146 454.71148 103.89258 398.46094 C 20.824698 323.94825 22.023171 192.61852 96.230469 112.50781 C 182.09063 19.817307 330.75532 21.883662 420.81055 107.24023 C 522.85398 203.95941 519.93305 369.39756 423.84766 469.04102 C 525.90749 369.71792 531.07699 200.643 430.60156 98.240234 C 383.25814 49.988664 319.4169 24.714907 255.30859 23.498047 L 255.30859 23.5 C 253.30521 23.46197 251.30222 23.446078 249.29883 23.455078 z M 258.8125 358.92188 A 12.374369 8.8388348 0 0 1 271.18555 367.75977 A 12.374369 8.8388348 0 0 1 258.8125 376.59961 A 12.374369 8.8388348 0 0 1 246.4375 367.75977 A 12.374369 8.8388348 0 0 1 258.8125 358.92188 z "
         transform="translate(0,-448)"
         id="path7122-3" />
    </g>
  </g>
</svg>
